<svg width="16" height="14" viewBox="0 0 16 14" fill="none" xmlns="http://www.w3.org/2000/svg">
<path d="M0 1.4V11.2L3.84 8.68C4.11665 8.49775 4.4537 8.39944 4.8 8.4H11.2C12.0837 8.4 12.8 7.7732 12.8 7V1.4C12.8 0.626801 12.0837 0 11.2 0H1.6C0.716344 0 0 0.626801 0 1.4ZM1.6 8.4V1.4H11.2V7H4.2672C3.92086 6.99918 3.58372 7.09752 3.3072 7.28L1.6 8.4Z" fill="#01A7CC"/>
<path d="M16 14V4.9C16 4.1268 15.2837 3.5 14.4 3.5V11.2L12.6928 10.08C12.4163 9.89752 12.0791 9.79918 11.7328 9.8H4C4 10.5732 4.71634 11.2 5.6 11.2H11.2C11.5463 11.1994 11.8833 11.2977 12.16 11.48L16 14Z" fill="#01A7CC"/>
</svg>
