<svg
              width="20"
              height="20"
              viewBox="0 0 20 20"
              fill="none"
              xmlns="http://www.w3.org/2000/svg"
            >
              <path
                d="M15.8335 18.3334H4.16683C3.70659 18.3334 3.3335 17.9603 3.3335 17.5V9.51169C3.3335 9.2907 3.42137 9.07877 3.57766 8.92253L9.411 3.08919C9.5673 2.93271 9.77941 2.84479 10.0006 2.84479C10.2218 2.84479 10.4339 2.93271 10.5902 3.08919L16.4235 8.92253C16.58 9.07859 16.6676 9.29071 16.6668 9.51169V17.5C16.6668 17.9603 16.2937 18.3334 15.8335 18.3334ZM8.3335 12.5H11.6668V16.6667H15.0002V9.85669L10.0002 4.85669L5.00016 9.85669V16.6667H8.3335V12.5Z"
                fill="#909090"
              />
            </svg>