<svg width="20" height="20" viewBox="0 0 20 20" fill="none" xmlns="http://www.w3.org/2000/svg">
<path d="M16.6665 16.6667H3.33317C2.44193 16.6934 1.69685 15.9945 1.6665 15.1033V4.89585C1.69685 4.00485 2.44207 3.3062 3.33317 3.33335H16.6665C17.5576 3.3062 18.3028 4.00485 18.3332 4.89585V15.1042C18.3024 15.995 17.5574 16.6934 16.6665 16.6667ZM3.33317 5.00001V14.9908L16.6665 15V5.00918L3.33317 5.00001ZM11.1915 13.3333H4.99984C5.06111 12.6434 5.38762 12.0041 5.91067 11.55C6.49303 10.9723 7.27551 10.641 8.09567 10.625C8.91583 10.641 9.69832 10.9723 10.2807 11.55C10.8036 12.0042 11.1301 12.6434 11.1915 13.3333ZM14.9998 12.5H12.4998V10.8333H14.9998V12.5ZM8.09567 10C7.64907 10.0155 7.21607 9.84493 6.90008 9.52894C6.58409 9.21295 6.41348 8.77995 6.429 8.33335C6.41373 7.88681 6.58442 7.45396 6.90035 7.13803C7.21628 6.8221 7.64914 6.65141 8.09567 6.66668C8.5422 6.65141 8.97506 6.8221 9.29099 7.13803C9.60692 7.45396 9.77761 7.88681 9.76234 8.33335C9.77786 8.77995 9.60725 9.21295 9.29126 9.52894C8.97528 9.84493 8.54228 10.0155 8.09567 10ZM14.9998 9.16668H11.6665V7.50001H14.9998V9.16668Z" fill="#909090"/>
</svg>
