<svg width="20" height="20" viewBox="0 0 20 20" fill="none" xmlns="http://www.w3.org/2000/svg">
<path d="M9.9987 14.1667C10.9154 14.1667 11.6654 13.4167 11.6654 12.5C11.6654 11.5833 10.9154 10.8333 9.9987 10.8333C9.08203 10.8333 8.33203 11.5833 8.33203 12.5C8.33203 13.4167 9.08203 14.1667 9.9987 14.1667ZM14.9987 6.66668H14.1654V5.00001C14.1654 2.70001 12.2987 0.833344 9.9987 0.833344C7.6987 0.833344 5.83203 2.70001 5.83203 5.00001V6.66668H4.9987C4.08203 6.66668 3.33203 7.41668 3.33203 8.33334V16.6667C3.33203 17.5833 4.08203 18.3333 4.9987 18.3333H14.9987C15.9154 18.3333 16.6654 17.5833 16.6654 16.6667V8.33334C16.6654 7.41668 15.9154 6.66668 14.9987 6.66668ZM7.41536 5.00001C7.41536 3.57501 8.5737 2.41668 9.9987 2.41668C11.4237 2.41668 12.582 3.57501 12.582 5.00001V6.66668H7.41536V5.00001ZM14.9987 16.6667H4.9987V8.33334H14.9987V16.6667Z" fill="#01A7CC"/>
</svg>