<svg width="20" height="20" viewBox="0 0 20 20" xmlns="http://www.w3.org/2000/svg">
            <path
              d="M10.0002 18.3334C9.07969 18.3334 8.3335 17.5872 8.3335 16.6667H11.6668C11.6668 17.5872 10.9206 18.3334 10.0002 18.3334ZM16.6668 15.8334H3.3335V14.1667L5.00016 13.3334V8.75002C5.00016 5.86502 6.18433 3.99419 8.3335 3.48335V1.66669H11.6668V3.48335C13.816 3.99335 15.0002 5.86335 15.0002 8.75002V13.3334L16.6668 14.1667V15.8334ZM10.0002 4.79169C8.98322 4.72602 8.00248 5.18108 7.396 6.00002C6.87728 6.82048 6.62278 7.78034 6.66683 8.75002V14.1667H13.3335V8.75002C13.3775 7.78034 13.123 6.82051 12.6043 6.00002C11.9978 5.18108 11.0171 4.72602 10.0002 4.79169Z"
              fill="#909090"
            />
          </svg>