<svg width="20" height="20" viewBox="0 0 20 20" fill="none" xmlns="http://www.w3.org/2000/svg">
<path d="M16.6667 17.5H3.33333C2.8731 17.5 2.5 17.1269 2.5 16.6667V10.5833C2.5 10.3433 2.6036 10.1149 2.78417 9.95667L4.16667 8.75V3.33333C4.16667 2.8731 4.53976 2.5 5 2.5H16.6667C17.1269 2.5 17.5 2.8731 17.5 3.33333V16.6667C17.5 17.1269 17.1269 17.5 16.6667 17.5ZM7.5 6.1075C7.70177 6.10773 7.8966 6.18117 8.04833 6.31417L12.215 9.96C12.395 10.1173 12.4988 10.3443 12.5 10.5833V15.8333H15.8333V4.16667H5.83333V7.29167L6.95083 6.31333C7.1029 6.18045 7.29805 6.1073 7.5 6.1075ZM6.66667 13.3333H8.33333V15.8333H10.8333V10.9642L7.5 8.0475L4.16667 10.9642V15.8333H6.66667V13.3333Z" fill="#909090"/>
</svg>
