<svg width="20" height="20" viewBox="0 0 20 20" fill="none" xmlns="http://www.w3.org/2000/svg">
<path d="M9.99984 18.3333C5.39956 18.3283 1.67156 14.6003 1.6665 10V9.83334C1.75811 5.25378 5.52866 1.60664 10.1087 1.66741C14.6888 1.72817 18.3613 5.47408 18.3313 10.0545C18.3014 14.6348 14.5803 18.3324 9.99984 18.3333ZM9.9865 16.6667H9.99984C13.6804 16.663 16.6617 13.6773 16.6598 9.99667C16.658 6.31608 13.6738 3.33334 9.99317 3.33334C6.31257 3.33334 3.32835 6.31608 3.3265 9.99667C3.32466 13.6773 6.30591 16.663 9.9865 16.6667ZM10.8332 15H9.1665V13.3333H10.8332V15ZM10.8332 12.5H9.1665C9.14017 11.4147 9.70495 10.4007 10.6415 9.85167C11.1915 9.43 11.6665 9.06667 11.6665 8.33334C11.6665 7.41286 10.9203 6.66667 9.99984 6.66667C9.07936 6.66667 8.33317 7.41286 8.33317 8.33334H6.6665V8.25834C6.6799 7.06745 7.32761 5.97418 8.36565 5.39034C9.40368 4.8065 10.6743 4.82079 11.699 5.42784C12.7236 6.03488 13.3466 7.14245 13.3332 8.33334C13.2735 9.23252 12.7912 10.0502 12.0332 10.5375C11.3479 10.9677 10.9038 11.694 10.8332 12.5Z" fill="#909090"/>
</svg>
