<svg width="20" height="20" viewBox="0 0 20 20" fill="none" xmlns="http://www.w3.org/2000/svg">
<path d="M11.5167 18.3334H8.48335C8.09178 18.3334 7.75298 18.0609 7.66918 17.6784L7.33001 16.1084C6.87756 15.9101 6.44853 15.6622 6.05085 15.3692L4.52001 15.8567C4.14668 15.9757 3.74084 15.8186 3.54501 15.4792L2.02501 12.8534C1.83134 12.5138 1.89806 12.0854 2.18585 11.8209L3.37335 10.7375C3.31934 10.2468 3.31934 9.7516 3.37335 9.26085L2.18585 8.18002C1.89764 7.91533 1.83089 7.48645 2.02501 7.14669L3.54168 4.51919C3.7375 4.17977 4.14335 4.02263 4.51668 4.14169L6.04751 4.62919C6.2509 4.47848 6.46262 4.33937 6.68168 4.21252C6.89196 4.09393 7.10838 3.98656 7.33001 3.89085L7.67001 2.32252C7.75341 1.93999 8.09184 1.6671 8.48335 1.66669H11.5167C11.9082 1.6671 12.2466 1.93999 12.33 2.32252L12.6733 3.89169C12.9073 3.99462 13.1352 4.11092 13.3558 4.24002C13.5616 4.35903 13.7605 4.48951 13.9517 4.63085L15.4833 4.14335C15.8564 4.02474 16.2618 4.18182 16.4575 4.52085L17.9742 7.14835C18.1679 7.48792 18.1011 7.91628 17.8133 8.18085L16.6258 9.26419C16.6798 9.75493 16.6798 10.2501 16.6258 10.7409L17.8133 11.8242C18.1011 12.0888 18.1679 12.5171 17.9742 12.8567L16.4575 15.4842C16.2618 15.8232 15.8564 15.9803 15.4833 15.8617L13.9517 15.3742C13.7579 15.5169 13.5565 15.6491 13.3483 15.77C13.1299 15.8966 12.9045 16.011 12.6733 16.1125L12.33 17.6784C12.2463 18.0606 11.9079 18.333 11.5167 18.3334ZM6.35001 13.5242L7.03335 14.0242C7.18739 14.1376 7.34794 14.242 7.51418 14.3367C7.6706 14.4273 7.83165 14.5096 7.99668 14.5834L8.77418 14.9242L9.15501 16.6667H10.8467L11.2275 14.9234L12.005 14.5825C12.3444 14.4328 12.6666 14.2467 12.9658 14.0275L13.65 13.5275L15.3508 14.0692L16.1967 12.6042L14.8775 11.4017L14.9708 10.5584C15.0118 10.1895 15.0118 9.81722 14.9708 9.44835L14.8775 8.60502L16.1975 7.40002L15.3508 5.93419L13.65 6.47585L12.9658 5.97585C12.6665 5.75561 12.3444 5.56815 12.005 5.41669L11.2275 5.07585L10.8467 3.33335H9.15501L8.77251 5.07669L7.99668 5.41669C7.83152 5.48922 7.67044 5.57073 7.51418 5.66085C7.34896 5.75529 7.18926 5.85907 7.03585 5.97169L6.35168 6.47169L4.65168 5.93002L3.80418 7.40002L5.12335 8.60085L5.03001 9.44502C4.98902 9.81388 4.98902 10.1862 5.03001 10.555L5.12335 11.3984L3.80418 12.6009L4.65001 14.0659L6.35001 13.5242ZM9.99668 13.3334C8.15573 13.3334 6.66335 11.841 6.66335 10C6.66335 8.15907 8.15573 6.66669 9.99668 6.66669C11.8376 6.66669 13.33 8.15907 13.33 10C13.3277 11.84 11.8367 13.3311 9.99668 13.3334ZM9.99668 8.33335C9.08618 8.33428 8.34492 9.06573 8.33187 9.97614C8.31883 10.8865 9.03882 11.6389 9.94892 11.666C10.859 11.693 11.6224 10.9846 11.6633 10.075V10.4084V10C11.6633 9.07955 10.9172 8.33335 9.99668 8.33335Z" fill="#909090"/>
</svg>
